<?xml version="1.0" encoding="utf-8" standalone="no"?>
<!DOCTYPE svg PUBLIC "-//W3C//DTD SVG 1.1//EN"
  "http://www.w3.org/Graphics/SVG/1.1/DTD/svg11.dtd">
<!-- Created with matplotlib (https://matplotlib.org/) -->
<svg height="345.6pt" version="1.1" viewBox="0 0 460.8 345.6" width="460.8pt" xmlns="http://www.w3.org/2000/svg" xmlns:xlink="http://www.w3.org/1999/xlink">
 <defs>
  <style type="text/css">
*{stroke-linecap:butt;stroke-linejoin:round;}
  </style>
 </defs>
 <g id="figure_1">
  <g id="patch_1">
   <path d="M 0 345.6 
L 460.8 345.6 
L 460.8 0 
L 0 0 
z
" style="fill:#ffffff;"/>
  </g>
  <g id="axes_1">
   <g id="patch_2">
    <path d="M 57.6 307.584 
L 414.72 307.584 
L 414.72 41.472 
L 57.6 41.472 
z
" style="fill:#ffffff;"/>
   </g>
   <g id="PathCollection_1">
    <defs>
     <path d="M 0 3 
C 0.795609 3 1.55874 2.683901 2.12132 2.12132 
C 2.683901 1.55874 3 0.795609 3 0 
C 3 -0.795609 2.683901 -1.55874 2.12132 -2.12132 
C 1.55874 -2.683901 0.795609 -3 0 -3 
C -0.795609 -3 -1.55874 -2.683901 -2.12132 -2.12132 
C -2.683901 -1.55874 -3 -0.795609 -3 0 
C -3 0.795609 -2.683901 1.55874 -2.12132 2.12132 
C -1.55874 2.683901 -0.795609 3 0 3 
z
" id="m8f28f25f50" style="stroke:#1f77b4;"/>
    </defs>
    <g clip-path="url(#p814d79854b)">
     <use style="fill:#1f77b4;stroke:#1f77b4;" x="73.832775" xlink:href="#m8f28f25f50" y="61.95836"/>
     <use style="fill:#1f77b4;stroke:#1f77b4;" x="75.401154" xlink:href="#m8f28f25f50" y="85.087008"/>
     <use style="fill:#1f77b4;stroke:#1f77b4;" x="76.969533" xlink:href="#m8f28f25f50" y="92.807478"/>
     <use style="fill:#1f77b4;stroke:#1f77b4;" x="78.537912" xlink:href="#m8f28f25f50" y="67.216993"/>
     <use style="fill:#1f77b4;stroke:#1f77b4;" x="80.106291" xlink:href="#m8f28f25f50" y="63.233223"/>
     <use style="fill:#1f77b4;stroke:#1f77b4;" x="81.67467" xlink:href="#m8f28f25f50" y="57.298552"/>
     <use style="fill:#1f77b4;stroke:#1f77b4;" x="83.243049" xlink:href="#m8f28f25f50" y="81.610889"/>
     <use style="fill:#1f77b4;stroke:#1f77b4;" x="84.811428" xlink:href="#m8f28f25f50" y="89.957813"/>
     <use style="fill:#1f77b4;stroke:#1f77b4;" x="86.379807" xlink:href="#m8f28f25f50" y="100.783676"/>
     <use style="fill:#1f77b4;stroke:#1f77b4;" x="87.948186" xlink:href="#m8f28f25f50" y="100.507907"/>
     <use style="fill:#1f77b4;stroke:#1f77b4;" x="89.516565" xlink:href="#m8f28f25f50" y="112.939706"/>
     <use style="fill:#1f77b4;stroke:#1f77b4;" x="91.084944" xlink:href="#m8f28f25f50" y="102.689102"/>
     <use style="fill:#1f77b4;stroke:#1f77b4;" x="92.653323" xlink:href="#m8f28f25f50" y="87.910717"/>
     <use style="fill:#1f77b4;stroke:#1f77b4;" x="94.221702" xlink:href="#m8f28f25f50" y="87.25305"/>
     <use style="fill:#1f77b4;stroke:#1f77b4;" x="95.790081" xlink:href="#m8f28f25f50" y="100.246305"/>
     <use style="fill:#1f77b4;stroke:#1f77b4;" x="97.35846" xlink:href="#m8f28f25f50" y="109.24764"/>
     <use style="fill:#1f77b4;stroke:#1f77b4;" x="98.926839" xlink:href="#m8f28f25f50" y="128.415042"/>
     <use style="fill:#1f77b4;stroke:#1f77b4;" x="100.495218" xlink:href="#m8f28f25f50" y="113.333329"/>
     <use style="fill:#1f77b4;stroke:#1f77b4;" x="102.063596" xlink:href="#m8f28f25f50" y="128.040043"/>
     <use style="fill:#1f77b4;stroke:#1f77b4;" x="103.631975" xlink:href="#m8f28f25f50" y="139.747594"/>
     <use style="fill:#1f77b4;stroke:#1f77b4;" x="105.200354" xlink:href="#m8f28f25f50" y="130.476791"/>
     <use style="fill:#1f77b4;stroke:#1f77b4;" x="106.768733" xlink:href="#m8f28f25f50" y="105.846862"/>
     <use style="fill:#1f77b4;stroke:#1f77b4;" x="108.337112" xlink:href="#m8f28f25f50" y="92.337774"/>
     <use style="fill:#1f77b4;stroke:#1f77b4;" x="109.905491" xlink:href="#m8f28f25f50" y="97.631864"/>
     <use style="fill:#1f77b4;stroke:#1f77b4;" x="111.47387" xlink:href="#m8f28f25f50" y="137.76421"/>
     <use style="fill:#1f77b4;stroke:#1f77b4;" x="113.042249" xlink:href="#m8f28f25f50" y="140.529399"/>
     <use style="fill:#1f77b4;stroke:#1f77b4;" x="114.610628" xlink:href="#m8f28f25f50" y="140.962842"/>
     <use style="fill:#1f77b4;stroke:#1f77b4;" x="116.179007" xlink:href="#m8f28f25f50" y="131.439761"/>
     <use style="fill:#1f77b4;stroke:#1f77b4;" x="117.747386" xlink:href="#m8f28f25f50" y="124.234867"/>
     <use style="fill:#1f77b4;stroke:#1f77b4;" x="119.315765" xlink:href="#m8f28f25f50" y="137.189919"/>
     <use style="fill:#1f77b4;stroke:#1f77b4;" x="120.884144" xlink:href="#m8f28f25f50" y="142.67877"/>
     <use style="fill:#1f77b4;stroke:#1f77b4;" x="122.452523" xlink:href="#m8f28f25f50" y="123.828362"/>
     <use style="fill:#1f77b4;stroke:#1f77b4;" x="124.020902" xlink:href="#m8f28f25f50" y="165.516032"/>
     <use style="fill:#1f77b4;stroke:#1f77b4;" x="125.589281" xlink:href="#m8f28f25f50" y="163.045235"/>
     <use style="fill:#1f77b4;stroke:#1f77b4;" x="127.15766" xlink:href="#m8f28f25f50" y="172.188153"/>
     <use style="fill:#1f77b4;stroke:#1f77b4;" x="128.726039" xlink:href="#m8f28f25f50" y="132.042829"/>
     <use style="fill:#1f77b4;stroke:#1f77b4;" x="130.294418" xlink:href="#m8f28f25f50" y="146.182272"/>
     <use style="fill:#1f77b4;stroke:#1f77b4;" x="131.862797" xlink:href="#m8f28f25f50" y="132.055698"/>
     <use style="fill:#1f77b4;stroke:#1f77b4;" x="133.431176" xlink:href="#m8f28f25f50" y="180.332475"/>
     <use style="fill:#1f77b4;stroke:#1f77b4;" x="134.999555" xlink:href="#m8f28f25f50" y="160.240159"/>
     <use style="fill:#1f77b4;stroke:#1f77b4;" x="136.567934" xlink:href="#m8f28f25f50" y="170.444195"/>
     <use style="fill:#1f77b4;stroke:#1f77b4;" x="138.136313" xlink:href="#m8f28f25f50" y="174.433419"/>
     <use style="fill:#1f77b4;stroke:#1f77b4;" x="139.704692" xlink:href="#m8f28f25f50" y="149.382109"/>
     <use style="fill:#1f77b4;stroke:#1f77b4;" x="141.273071" xlink:href="#m8f28f25f50" y="187.609123"/>
     <use style="fill:#1f77b4;stroke:#1f77b4;" x="142.84145" xlink:href="#m8f28f25f50" y="163.127468"/>
     <use style="fill:#1f77b4;stroke:#1f77b4;" x="144.409829" xlink:href="#m8f28f25f50" y="162.435023"/>
     <use style="fill:#1f77b4;stroke:#1f77b4;" x="145.978208" xlink:href="#m8f28f25f50" y="166.649191"/>
     <use style="fill:#1f77b4;stroke:#1f77b4;" x="147.546587" xlink:href="#m8f28f25f50" y="169.860307"/>
     <use style="fill:#1f77b4;stroke:#1f77b4;" x="149.114966" xlink:href="#m8f28f25f50" y="179.307606"/>
     <use style="fill:#1f77b4;stroke:#1f77b4;" x="150.683345" xlink:href="#m8f28f25f50" y="188.067859"/>
     <use style="fill:#1f77b4;stroke:#1f77b4;" x="152.251724" xlink:href="#m8f28f25f50" y="166.739209"/>
     <use style="fill:#1f77b4;stroke:#1f77b4;" x="153.820103" xlink:href="#m8f28f25f50" y="201.955904"/>
     <use style="fill:#1f77b4;stroke:#1f77b4;" x="155.388482" xlink:href="#m8f28f25f50" y="167.574631"/>
     <use style="fill:#1f77b4;stroke:#1f77b4;" x="156.956861" xlink:href="#m8f28f25f50" y="182.051676"/>
     <use style="fill:#1f77b4;stroke:#1f77b4;" x="158.52524" xlink:href="#m8f28f25f50" y="174.327159"/>
     <use style="fill:#1f77b4;stroke:#1f77b4;" x="160.093619" xlink:href="#m8f28f25f50" y="178.689783"/>
     <use style="fill:#1f77b4;stroke:#1f77b4;" x="161.661998" xlink:href="#m8f28f25f50" y="188.525337"/>
     <use style="fill:#1f77b4;stroke:#1f77b4;" x="163.230377" xlink:href="#m8f28f25f50" y="179.914931"/>
     <use style="fill:#1f77b4;stroke:#1f77b4;" x="164.798756" xlink:href="#m8f28f25f50" y="172.29332"/>
     <use style="fill:#1f77b4;stroke:#1f77b4;" x="166.367135" xlink:href="#m8f28f25f50" y="180.561455"/>
     <use style="fill:#1f77b4;stroke:#1f77b4;" x="167.935514" xlink:href="#m8f28f25f50" y="182.24507"/>
     <use style="fill:#1f77b4;stroke:#1f77b4;" x="169.503893" xlink:href="#m8f28f25f50" y="186.144464"/>
     <use style="fill:#1f77b4;stroke:#1f77b4;" x="171.072272" xlink:href="#m8f28f25f50" y="196.615611"/>
     <use style="fill:#1f77b4;stroke:#1f77b4;" x="172.640651" xlink:href="#m8f28f25f50" y="213.723615"/>
     <use style="fill:#1f77b4;stroke:#1f77b4;" x="174.20903" xlink:href="#m8f28f25f50" y="223.932758"/>
     <use style="fill:#1f77b4;stroke:#1f77b4;" x="175.777409" xlink:href="#m8f28f25f50" y="218.375708"/>
     <use style="fill:#1f77b4;stroke:#1f77b4;" x="177.345788" xlink:href="#m8f28f25f50" y="209.138358"/>
     <use style="fill:#1f77b4;stroke:#1f77b4;" x="178.914167" xlink:href="#m8f28f25f50" y="223.064817"/>
     <use style="fill:#1f77b4;stroke:#1f77b4;" x="180.482546" xlink:href="#m8f28f25f50" y="220.772883"/>
     <use style="fill:#1f77b4;stroke:#1f77b4;" x="182.050925" xlink:href="#m8f28f25f50" y="217.08845"/>
     <use style="fill:#1f77b4;stroke:#1f77b4;" x="183.619304" xlink:href="#m8f28f25f50" y="201.86406"/>
     <use style="fill:#1f77b4;stroke:#1f77b4;" x="185.187683" xlink:href="#m8f28f25f50" y="202.407545"/>
     <use style="fill:#1f77b4;stroke:#1f77b4;" x="186.756062" xlink:href="#m8f28f25f50" y="213.449067"/>
     <use style="fill:#1f77b4;stroke:#1f77b4;" x="188.324441" xlink:href="#m8f28f25f50" y="212.535535"/>
     <use style="fill:#1f77b4;stroke:#1f77b4;" x="189.89282" xlink:href="#m8f28f25f50" y="194.223916"/>
     <use style="fill:#1f77b4;stroke:#1f77b4;" x="191.461199" xlink:href="#m8f28f25f50" y="222.904517"/>
     <use style="fill:#1f77b4;stroke:#1f77b4;" x="193.029578" xlink:href="#m8f28f25f50" y="196.844642"/>
     <use style="fill:#1f77b4;stroke:#1f77b4;" x="194.597957" xlink:href="#m8f28f25f50" y="205.806698"/>
     <use style="fill:#1f77b4;stroke:#1f77b4;" x="196.166336" xlink:href="#m8f28f25f50" y="221.859577"/>
     <use style="fill:#1f77b4;stroke:#1f77b4;" x="197.734715" xlink:href="#m8f28f25f50" y="230.728731"/>
     <use style="fill:#1f77b4;stroke:#1f77b4;" x="199.303094" xlink:href="#m8f28f25f50" y="202.22087"/>
     <use style="fill:#1f77b4;stroke:#1f77b4;" x="200.871473" xlink:href="#m8f28f25f50" y="217.695518"/>
     <use style="fill:#1f77b4;stroke:#1f77b4;" x="202.439852" xlink:href="#m8f28f25f50" y="229.368809"/>
     <use style="fill:#1f77b4;stroke:#1f77b4;" x="204.008231" xlink:href="#m8f28f25f50" y="227.405018"/>
     <use style="fill:#1f77b4;stroke:#1f77b4;" x="205.57661" xlink:href="#m8f28f25f50" y="228.322334"/>
     <use style="fill:#1f77b4;stroke:#1f77b4;" x="207.144989" xlink:href="#m8f28f25f50" y="221.276667"/>
     <use style="fill:#1f77b4;stroke:#1f77b4;" x="208.713368" xlink:href="#m8f28f25f50" y="223.379298"/>
     <use style="fill:#1f77b4;stroke:#1f77b4;" x="210.281747" xlink:href="#m8f28f25f50" y="220.851385"/>
     <use style="fill:#1f77b4;stroke:#1f77b4;" x="211.850126" xlink:href="#m8f28f25f50" y="238.6126"/>
     <use style="fill:#1f77b4;stroke:#1f77b4;" x="213.418505" xlink:href="#m8f28f25f50" y="233.044309"/>
     <use style="fill:#1f77b4;stroke:#1f77b4;" x="214.986884" xlink:href="#m8f28f25f50" y="233.813731"/>
     <use style="fill:#1f77b4;stroke:#1f77b4;" x="216.555263" xlink:href="#m8f28f25f50" y="246.444272"/>
     <use style="fill:#1f77b4;stroke:#1f77b4;" x="218.123642" xlink:href="#m8f28f25f50" y="229.169729"/>
     <use style="fill:#1f77b4;stroke:#1f77b4;" x="219.692021" xlink:href="#m8f28f25f50" y="232.8059"/>
     <use style="fill:#1f77b4;stroke:#1f77b4;" x="221.2604" xlink:href="#m8f28f25f50" y="231.796414"/>
     <use style="fill:#1f77b4;stroke:#1f77b4;" x="222.828779" xlink:href="#m8f28f25f50" y="235.637989"/>
     <use style="fill:#1f77b4;stroke:#1f77b4;" x="224.397158" xlink:href="#m8f28f25f50" y="227.084253"/>
     <use style="fill:#1f77b4;stroke:#1f77b4;" x="225.965537" xlink:href="#m8f28f25f50" y="223.85323"/>
     <use style="fill:#1f77b4;stroke:#1f77b4;" x="227.533916" xlink:href="#m8f28f25f50" y="240.056883"/>
     <use style="fill:#1f77b4;stroke:#1f77b4;" x="229.102295" xlink:href="#m8f28f25f50" y="243.288011"/>
     <use style="fill:#1f77b4;stroke:#1f77b4;" x="230.670674" xlink:href="#m8f28f25f50" y="236.089159"/>
     <use style="fill:#1f77b4;stroke:#1f77b4;" x="232.239053" xlink:href="#m8f28f25f50" y="244.975912"/>
     <use style="fill:#1f77b4;stroke:#1f77b4;" x="233.807432" xlink:href="#m8f28f25f50" y="244.775261"/>
     <use style="fill:#1f77b4;stroke:#1f77b4;" x="235.375811" xlink:href="#m8f28f25f50" y="229.320988"/>
     <use style="fill:#1f77b4;stroke:#1f77b4;" x="236.944189" xlink:href="#m8f28f25f50" y="240.408066"/>
     <use style="fill:#1f77b4;stroke:#1f77b4;" x="238.512568" xlink:href="#m8f28f25f50" y="232.501469"/>
     <use style="fill:#1f77b4;stroke:#1f77b4;" x="240.080947" xlink:href="#m8f28f25f50" y="238.47383"/>
     <use style="fill:#1f77b4;stroke:#1f77b4;" x="241.649326" xlink:href="#m8f28f25f50" y="225.792988"/>
     <use style="fill:#1f77b4;stroke:#1f77b4;" x="243.217705" xlink:href="#m8f28f25f50" y="227.83785"/>
     <use style="fill:#1f77b4;stroke:#1f77b4;" x="244.786084" xlink:href="#m8f28f25f50" y="243.811711"/>
     <use style="fill:#1f77b4;stroke:#1f77b4;" x="246.354463" xlink:href="#m8f28f25f50" y="247.809204"/>
     <use style="fill:#1f77b4;stroke:#1f77b4;" x="247.922842" xlink:href="#m8f28f25f50" y="246.648392"/>
     <use style="fill:#1f77b4;stroke:#1f77b4;" x="249.491221" xlink:href="#m8f28f25f50" y="244.851699"/>
     <use style="fill:#1f77b4;stroke:#1f77b4;" x="251.0596" xlink:href="#m8f28f25f50" y="238.084547"/>
     <use style="fill:#1f77b4;stroke:#1f77b4;" x="252.627979" xlink:href="#m8f28f25f50" y="245.849745"/>
     <use style="fill:#1f77b4;stroke:#1f77b4;" x="254.196358" xlink:href="#m8f28f25f50" y="246.778631"/>
     <use style="fill:#1f77b4;stroke:#1f77b4;" x="255.764737" xlink:href="#m8f28f25f50" y="246.55805"/>
     <use style="fill:#1f77b4;stroke:#1f77b4;" x="257.333116" xlink:href="#m8f28f25f50" y="249.286563"/>
     <use style="fill:#1f77b4;stroke:#1f77b4;" x="258.901495" xlink:href="#m8f28f25f50" y="249.880327"/>
     <use style="fill:#1f77b4;stroke:#1f77b4;" x="260.469874" xlink:href="#m8f28f25f50" y="264.429227"/>
     <use style="fill:#1f77b4;stroke:#1f77b4;" x="262.038253" xlink:href="#m8f28f25f50" y="237.660255"/>
     <use style="fill:#1f77b4;stroke:#1f77b4;" x="263.606632" xlink:href="#m8f28f25f50" y="249.884599"/>
     <use style="fill:#1f77b4;stroke:#1f77b4;" x="265.175011" xlink:href="#m8f28f25f50" y="253.830147"/>
     <use style="fill:#1f77b4;stroke:#1f77b4;" x="266.74339" xlink:href="#m8f28f25f50" y="250.147286"/>
     <use style="fill:#1f77b4;stroke:#1f77b4;" x="268.311769" xlink:href="#m8f28f25f50" y="254.712911"/>
     <use style="fill:#1f77b4;stroke:#1f77b4;" x="269.880148" xlink:href="#m8f28f25f50" y="257.014168"/>
     <use style="fill:#1f77b4;stroke:#1f77b4;" x="271.448527" xlink:href="#m8f28f25f50" y="236.466844"/>
     <use style="fill:#1f77b4;stroke:#1f77b4;" x="273.016906" xlink:href="#m8f28f25f50" y="252.577701"/>
     <use style="fill:#1f77b4;stroke:#1f77b4;" x="274.585285" xlink:href="#m8f28f25f50" y="258.710517"/>
     <use style="fill:#1f77b4;stroke:#1f77b4;" x="276.153664" xlink:href="#m8f28f25f50" y="259.385204"/>
     <use style="fill:#1f77b4;stroke:#1f77b4;" x="277.722043" xlink:href="#m8f28f25f50" y="251.307638"/>
     <use style="fill:#1f77b4;stroke:#1f77b4;" x="279.290422" xlink:href="#m8f28f25f50" y="234.883244"/>
     <use style="fill:#1f77b4;stroke:#1f77b4;" x="280.858801" xlink:href="#m8f28f25f50" y="253.874033"/>
     <use style="fill:#1f77b4;stroke:#1f77b4;" x="282.42718" xlink:href="#m8f28f25f50" y="268.912893"/>
     <use style="fill:#1f77b4;stroke:#1f77b4;" x="283.995559" xlink:href="#m8f28f25f50" y="253.5249"/>
     <use style="fill:#1f77b4;stroke:#1f77b4;" x="285.563938" xlink:href="#m8f28f25f50" y="257.599064"/>
     <use style="fill:#1f77b4;stroke:#1f77b4;" x="287.132317" xlink:href="#m8f28f25f50" y="259.763164"/>
     <use style="fill:#1f77b4;stroke:#1f77b4;" x="288.700696" xlink:href="#m8f28f25f50" y="255.174795"/>
     <use style="fill:#1f77b4;stroke:#1f77b4;" x="290.269075" xlink:href="#m8f28f25f50" y="259.916101"/>
     <use style="fill:#1f77b4;stroke:#1f77b4;" x="291.837454" xlink:href="#m8f28f25f50" y="263.224686"/>
     <use style="fill:#1f77b4;stroke:#1f77b4;" x="293.405833" xlink:href="#m8f28f25f50" y="263.653482"/>
     <use style="fill:#1f77b4;stroke:#1f77b4;" x="294.974212" xlink:href="#m8f28f25f50" y="255.245297"/>
     <use style="fill:#1f77b4;stroke:#1f77b4;" x="296.542591" xlink:href="#m8f28f25f50" y="276.067356"/>
     <use style="fill:#1f77b4;stroke:#1f77b4;" x="298.11097" xlink:href="#m8f28f25f50" y="262.704374"/>
     <use style="fill:#1f77b4;stroke:#1f77b4;" x="299.679349" xlink:href="#m8f28f25f50" y="271.735104"/>
     <use style="fill:#1f77b4;stroke:#1f77b4;" x="301.247728" xlink:href="#m8f28f25f50" y="259.732865"/>
     <use style="fill:#1f77b4;stroke:#1f77b4;" x="302.816107" xlink:href="#m8f28f25f50" y="273.843615"/>
     <use style="fill:#1f77b4;stroke:#1f77b4;" x="304.384486" xlink:href="#m8f28f25f50" y="269.409051"/>
     <use style="fill:#1f77b4;stroke:#1f77b4;" x="305.952865" xlink:href="#m8f28f25f50" y="269.649902"/>
     <use style="fill:#1f77b4;stroke:#1f77b4;" x="307.521244" xlink:href="#m8f28f25f50" y="268.581979"/>
     <use style="fill:#1f77b4;stroke:#1f77b4;" x="309.089623" xlink:href="#m8f28f25f50" y="273.662082"/>
     <use style="fill:#1f77b4;stroke:#1f77b4;" x="310.658002" xlink:href="#m8f28f25f50" y="271.048026"/>
     <use style="fill:#1f77b4;stroke:#1f77b4;" x="312.226381" xlink:href="#m8f28f25f50" y="263.73415"/>
     <use style="fill:#1f77b4;stroke:#1f77b4;" x="313.79476" xlink:href="#m8f28f25f50" y="266.669389"/>
     <use style="fill:#1f77b4;stroke:#1f77b4;" x="315.363139" xlink:href="#m8f28f25f50" y="267.54636"/>
     <use style="fill:#1f77b4;stroke:#1f77b4;" x="316.931518" xlink:href="#m8f28f25f50" y="262.110253"/>
     <use style="fill:#1f77b4;stroke:#1f77b4;" x="318.499897" xlink:href="#m8f28f25f50" y="275.48887"/>
     <use style="fill:#1f77b4;stroke:#1f77b4;" x="320.068276" xlink:href="#m8f28f25f50" y="265.968778"/>
     <use style="fill:#1f77b4;stroke:#1f77b4;" x="321.636655" xlink:href="#m8f28f25f50" y="265.077767"/>
     <use style="fill:#1f77b4;stroke:#1f77b4;" x="323.205034" xlink:href="#m8f28f25f50" y="276.021929"/>
     <use style="fill:#1f77b4;stroke:#1f77b4;" x="324.773413" xlink:href="#m8f28f25f50" y="279.058019"/>
     <use style="fill:#1f77b4;stroke:#1f77b4;" x="326.341792" xlink:href="#m8f28f25f50" y="278.136311"/>
     <use style="fill:#1f77b4;stroke:#1f77b4;" x="327.910171" xlink:href="#m8f28f25f50" y="277.155199"/>
     <use style="fill:#1f77b4;stroke:#1f77b4;" x="329.47855" xlink:href="#m8f28f25f50" y="271.339112"/>
     <use style="fill:#1f77b4;stroke:#1f77b4;" x="331.046929" xlink:href="#m8f28f25f50" y="278.428271"/>
     <use style="fill:#1f77b4;stroke:#1f77b4;" x="332.615308" xlink:href="#m8f28f25f50" y="268.768246"/>
     <use style="fill:#1f77b4;stroke:#1f77b4;" x="334.183687" xlink:href="#m8f28f25f50" y="277.056722"/>
     <use style="fill:#1f77b4;stroke:#1f77b4;" x="335.752066" xlink:href="#m8f28f25f50" y="265.965163"/>
     <use style="fill:#1f77b4;stroke:#1f77b4;" x="337.320445" xlink:href="#m8f28f25f50" y="273.805689"/>
     <use style="fill:#1f77b4;stroke:#1f77b4;" x="338.888824" xlink:href="#m8f28f25f50" y="271.788276"/>
     <use style="fill:#1f77b4;stroke:#1f77b4;" x="340.457203" xlink:href="#m8f28f25f50" y="274.58524"/>
     <use style="fill:#1f77b4;stroke:#1f77b4;" x="342.025582" xlink:href="#m8f28f25f50" y="276.970721"/>
     <use style="fill:#1f77b4;stroke:#1f77b4;" x="343.593961" xlink:href="#m8f28f25f50" y="267.058211"/>
     <use style="fill:#1f77b4;stroke:#1f77b4;" x="345.16234" xlink:href="#m8f28f25f50" y="270.958213"/>
     <use style="fill:#1f77b4;stroke:#1f77b4;" x="346.730719" xlink:href="#m8f28f25f50" y="280.870132"/>
     <use style="fill:#1f77b4;stroke:#1f77b4;" x="348.299098" xlink:href="#m8f28f25f50" y="278.020935"/>
     <use style="fill:#1f77b4;stroke:#1f77b4;" x="349.867477" xlink:href="#m8f28f25f50" y="278.246785"/>
     <use style="fill:#1f77b4;stroke:#1f77b4;" x="351.435856" xlink:href="#m8f28f25f50" y="276.378026"/>
     <use style="fill:#1f77b4;stroke:#1f77b4;" x="353.004235" xlink:href="#m8f28f25f50" y="279.667031"/>
     <use style="fill:#1f77b4;stroke:#1f77b4;" x="354.572614" xlink:href="#m8f28f25f50" y="283.219546"/>
     <use style="fill:#1f77b4;stroke:#1f77b4;" x="356.140993" xlink:href="#m8f28f25f50" y="278.421129"/>
     <use style="fill:#1f77b4;stroke:#1f77b4;" x="357.709372" xlink:href="#m8f28f25f50" y="277.570261"/>
     <use style="fill:#1f77b4;stroke:#1f77b4;" x="359.277751" xlink:href="#m8f28f25f50" y="281.811951"/>
     <use style="fill:#1f77b4;stroke:#1f77b4;" x="360.84613" xlink:href="#m8f28f25f50" y="284.671901"/>
     <use style="fill:#1f77b4;stroke:#1f77b4;" x="362.414509" xlink:href="#m8f28f25f50" y="277.746661"/>
     <use style="fill:#1f77b4;stroke:#1f77b4;" x="363.982888" xlink:href="#m8f28f25f50" y="284.377514"/>
     <use style="fill:#1f77b4;stroke:#1f77b4;" x="365.551267" xlink:href="#m8f28f25f50" y="281.373728"/>
     <use style="fill:#1f77b4;stroke:#1f77b4;" x="367.119646" xlink:href="#m8f28f25f50" y="287.862794"/>
     <use style="fill:#1f77b4;stroke:#1f77b4;" x="368.688025" xlink:href="#m8f28f25f50" y="285.69589"/>
     <use style="fill:#1f77b4;stroke:#1f77b4;" x="370.256404" xlink:href="#m8f28f25f50" y="283.307524"/>
     <use style="fill:#1f77b4;stroke:#1f77b4;" x="371.824782" xlink:href="#m8f28f25f50" y="280.279217"/>
     <use style="fill:#1f77b4;stroke:#1f77b4;" x="373.393161" xlink:href="#m8f28f25f50" y="288.659783"/>
     <use style="fill:#1f77b4;stroke:#1f77b4;" x="374.96154" xlink:href="#m8f28f25f50" y="281.37971"/>
     <use style="fill:#1f77b4;stroke:#1f77b4;" x="376.529919" xlink:href="#m8f28f25f50" y="277.937723"/>
     <use style="fill:#1f77b4;stroke:#1f77b4;" x="378.098298" xlink:href="#m8f28f25f50" y="284.734352"/>
     <use style="fill:#1f77b4;stroke:#1f77b4;" x="379.666677" xlink:href="#m8f28f25f50" y="281.768198"/>
     <use style="fill:#1f77b4;stroke:#1f77b4;" x="381.235056" xlink:href="#m8f28f25f50" y="284.646617"/>
     <use style="fill:#1f77b4;stroke:#1f77b4;" x="382.803435" xlink:href="#m8f28f25f50" y="287.888946"/>
     <use style="fill:#1f77b4;stroke:#1f77b4;" x="384.371814" xlink:href="#m8f28f25f50" y="283.754833"/>
     <use style="fill:#1f77b4;stroke:#1f77b4;" x="385.940193" xlink:href="#m8f28f25f50" y="279.407989"/>
     <use style="fill:#1f77b4;stroke:#1f77b4;" x="387.508572" xlink:href="#m8f28f25f50" y="288.594159"/>
     <use style="fill:#1f77b4;stroke:#1f77b4;" x="389.076951" xlink:href="#m8f28f25f50" y="283.988056"/>
     <use style="fill:#1f77b4;stroke:#1f77b4;" x="390.64533" xlink:href="#m8f28f25f50" y="291.406774"/>
     <use style="fill:#1f77b4;stroke:#1f77b4;" x="392.213709" xlink:href="#m8f28f25f50" y="291.757448"/>
     <use style="fill:#1f77b4;stroke:#1f77b4;" x="393.782088" xlink:href="#m8f28f25f50" y="289.589632"/>
     <use style="fill:#1f77b4;stroke:#1f77b4;" x="395.350467" xlink:href="#m8f28f25f50" y="285.386321"/>
     <use style="fill:#1f77b4;stroke:#1f77b4;" x="396.918846" xlink:href="#m8f28f25f50" y="288.08503"/>
     <use style="fill:#1f77b4;stroke:#1f77b4;" x="398.487225" xlink:href="#m8f28f25f50" y="287.33494"/>
    </g>
   </g>
   <g id="matplotlib.axis_1">
    <g id="xtick_1">
     <g id="line2d_1">
      <defs>
       <path d="M 0 0 
L 0 3.5 
" id="md928f0ee5f" style="stroke:#000000;stroke-width:0.8;"/>
      </defs>
      <g>
       <use style="stroke:#000000;stroke-width:0.8;" x="73.44068" xlink:href="#md928f0ee5f" y="307.584"/>
      </g>
     </g>
     <g id="text_1">
      <!-- 0 -->
      <defs>
       <path d="M 31.78125 66.40625 
Q 24.171875 66.40625 20.328125 58.90625 
Q 16.5 51.421875 16.5 36.375 
Q 16.5 21.390625 20.328125 13.890625 
Q 24.171875 6.390625 31.78125 6.390625 
Q 39.453125 6.390625 43.28125 13.890625 
Q 47.125 21.390625 47.125 36.375 
Q 47.125 51.421875 43.28125 58.90625 
Q 39.453125 66.40625 31.78125 66.40625 
z
M 31.78125 74.21875 
Q 44.046875 74.21875 50.515625 64.515625 
Q 56.984375 54.828125 56.984375 36.375 
Q 56.984375 17.96875 50.515625 8.265625 
Q 44.046875 -1.421875 31.78125 -1.421875 
Q 19.53125 -1.421875 13.0625 8.265625 
Q 6.59375 17.96875 6.59375 36.375 
Q 6.59375 54.828125 13.0625 64.515625 
Q 19.53125 74.21875 31.78125 74.21875 
z
" id="DejaVuSans-48"/>
      </defs>
      <g transform="translate(70.25943 322.182437)scale(0.1 -0.1)">
       <use xlink:href="#DejaVuSans-48"/>
      </g>
     </g>
    </g>
    <g id="xtick_2">
     <g id="line2d_2">
      <g>
       <use style="stroke:#000000;stroke-width:0.8;" x="151.859629" xlink:href="#md928f0ee5f" y="307.584"/>
      </g>
     </g>
     <g id="text_2">
      <!-- 10000 -->
      <defs>
       <path d="M 12.40625 8.296875 
L 28.515625 8.296875 
L 28.515625 63.921875 
L 10.984375 60.40625 
L 10.984375 69.390625 
L 28.421875 72.90625 
L 38.28125 72.90625 
L 38.28125 8.296875 
L 54.390625 8.296875 
L 54.390625 0 
L 12.40625 0 
z
" id="DejaVuSans-49"/>
      </defs>
      <g transform="translate(135.953379 322.182437)scale(0.1 -0.1)">
       <use xlink:href="#DejaVuSans-49"/>
       <use x="63.623047" xlink:href="#DejaVuSans-48"/>
       <use x="127.246094" xlink:href="#DejaVuSans-48"/>
       <use x="190.869141" xlink:href="#DejaVuSans-48"/>
       <use x="254.492188" xlink:href="#DejaVuSans-48"/>
      </g>
     </g>
    </g>
    <g id="xtick_3">
     <g id="line2d_3">
      <g>
       <use style="stroke:#000000;stroke-width:0.8;" x="230.278579" xlink:href="#md928f0ee5f" y="307.584"/>
      </g>
     </g>
     <g id="text_3">
      <!-- 20000 -->
      <defs>
       <path d="M 19.1875 8.296875 
L 53.609375 8.296875 
L 53.609375 0 
L 7.328125 0 
L 7.328125 8.296875 
Q 12.9375 14.109375 22.625 23.890625 
Q 32.328125 33.6875 34.8125 36.53125 
Q 39.546875 41.84375 41.421875 45.53125 
Q 43.3125 49.21875 43.3125 52.78125 
Q 43.3125 58.59375 39.234375 62.25 
Q 35.15625 65.921875 28.609375 65.921875 
Q 23.96875 65.921875 18.8125 64.3125 
Q 13.671875 62.703125 7.8125 59.421875 
L 7.8125 69.390625 
Q 13.765625 71.78125 18.9375 73 
Q 24.125 74.21875 28.421875 74.21875 
Q 39.75 74.21875 46.484375 68.546875 
Q 53.21875 62.890625 53.21875 53.421875 
Q 53.21875 48.921875 51.53125 44.890625 
Q 49.859375 40.875 45.40625 35.40625 
Q 44.1875 33.984375 37.640625 27.21875 
Q 31.109375 20.453125 19.1875 8.296875 
z
" id="DejaVuSans-50"/>
      </defs>
      <g transform="translate(214.372329 322.182437)scale(0.1 -0.1)">
       <use xlink:href="#DejaVuSans-50"/>
       <use x="63.623047" xlink:href="#DejaVuSans-48"/>
       <use x="127.246094" xlink:href="#DejaVuSans-48"/>
       <use x="190.869141" xlink:href="#DejaVuSans-48"/>
       <use x="254.492188" xlink:href="#DejaVuSans-48"/>
      </g>
     </g>
    </g>
    <g id="xtick_4">
     <g id="line2d_4">
      <g>
       <use style="stroke:#000000;stroke-width:0.8;" x="308.697528" xlink:href="#md928f0ee5f" y="307.584"/>
      </g>
     </g>
     <g id="text_4">
      <!-- 30000 -->
      <defs>
       <path d="M 40.578125 39.3125 
Q 47.65625 37.796875 51.625 33 
Q 55.609375 28.21875 55.609375 21.1875 
Q 55.609375 10.40625 48.1875 4.484375 
Q 40.765625 -1.421875 27.09375 -1.421875 
Q 22.515625 -1.421875 17.65625 -0.515625 
Q 12.796875 0.390625 7.625 2.203125 
L 7.625 11.71875 
Q 11.71875 9.328125 16.59375 8.109375 
Q 21.484375 6.890625 26.8125 6.890625 
Q 36.078125 6.890625 40.9375 10.546875 
Q 45.796875 14.203125 45.796875 21.1875 
Q 45.796875 27.640625 41.28125 31.265625 
Q 36.765625 34.90625 28.71875 34.90625 
L 20.21875 34.90625 
L 20.21875 43.015625 
L 29.109375 43.015625 
Q 36.375 43.015625 40.234375 45.921875 
Q 44.09375 48.828125 44.09375 54.296875 
Q 44.09375 59.90625 40.109375 62.90625 
Q 36.140625 65.921875 28.71875 65.921875 
Q 24.65625 65.921875 20.015625 65.03125 
Q 15.375 64.15625 9.8125 62.3125 
L 9.8125 71.09375 
Q 15.4375 72.65625 20.34375 73.4375 
Q 25.25 74.21875 29.59375 74.21875 
Q 40.828125 74.21875 47.359375 69.109375 
Q 53.90625 64.015625 53.90625 55.328125 
Q 53.90625 49.265625 50.4375 45.09375 
Q 46.96875 40.921875 40.578125 39.3125 
z
" id="DejaVuSans-51"/>
      </defs>
      <g transform="translate(292.791278 322.182437)scale(0.1 -0.1)">
       <use xlink:href="#DejaVuSans-51"/>
       <use x="63.623047" xlink:href="#DejaVuSans-48"/>
       <use x="127.246094" xlink:href="#DejaVuSans-48"/>
       <use x="190.869141" xlink:href="#DejaVuSans-48"/>
       <use x="254.492188" xlink:href="#DejaVuSans-48"/>
      </g>
     </g>
    </g>
    <g id="xtick_5">
     <g id="line2d_5">
      <g>
       <use style="stroke:#000000;stroke-width:0.8;" x="387.116478" xlink:href="#md928f0ee5f" y="307.584"/>
      </g>
     </g>
     <g id="text_5">
      <!-- 40000 -->
      <defs>
       <path d="M 37.796875 64.3125 
L 12.890625 25.390625 
L 37.796875 25.390625 
z
M 35.203125 72.90625 
L 47.609375 72.90625 
L 47.609375 25.390625 
L 58.015625 25.390625 
L 58.015625 17.1875 
L 47.609375 17.1875 
L 47.609375 0 
L 37.796875 0 
L 37.796875 17.1875 
L 4.890625 17.1875 
L 4.890625 26.703125 
z
" id="DejaVuSans-52"/>
      </defs>
      <g transform="translate(371.210228 322.182437)scale(0.1 -0.1)">
       <use xlink:href="#DejaVuSans-52"/>
       <use x="63.623047" xlink:href="#DejaVuSans-48"/>
       <use x="127.246094" xlink:href="#DejaVuSans-48"/>
       <use x="190.869141" xlink:href="#DejaVuSans-48"/>
       <use x="254.492188" xlink:href="#DejaVuSans-48"/>
      </g>
     </g>
    </g>
    <g id="text_6">
     <!-- Sample size -->
     <defs>
      <path d="M 53.515625 70.515625 
L 53.515625 60.890625 
Q 47.90625 63.578125 42.921875 64.890625 
Q 37.9375 66.21875 33.296875 66.21875 
Q 25.25 66.21875 20.875 63.09375 
Q 16.5 59.96875 16.5 54.203125 
Q 16.5 49.359375 19.40625 46.890625 
Q 22.3125 44.4375 30.421875 42.921875 
L 36.375 41.703125 
Q 47.40625 39.59375 52.65625 34.296875 
Q 57.90625 29 57.90625 20.125 
Q 57.90625 9.515625 50.796875 4.046875 
Q 43.703125 -1.421875 29.984375 -1.421875 
Q 24.8125 -1.421875 18.96875 -0.25 
Q 13.140625 0.921875 6.890625 3.21875 
L 6.890625 13.375 
Q 12.890625 10.015625 18.65625 8.296875 
Q 24.421875 6.59375 29.984375 6.59375 
Q 38.421875 6.59375 43.015625 9.90625 
Q 47.609375 13.234375 47.609375 19.390625 
Q 47.609375 24.75 44.3125 27.78125 
Q 41.015625 30.8125 33.5 32.328125 
L 27.484375 33.5 
Q 16.453125 35.6875 11.515625 40.375 
Q 6.59375 45.0625 6.59375 53.421875 
Q 6.59375 63.09375 13.40625 68.65625 
Q 20.21875 74.21875 32.171875 74.21875 
Q 37.3125 74.21875 42.625 73.28125 
Q 47.953125 72.359375 53.515625 70.515625 
z
" id="DejaVuSans-83"/>
      <path d="M 34.28125 27.484375 
Q 23.390625 27.484375 19.1875 25 
Q 14.984375 22.515625 14.984375 16.5 
Q 14.984375 11.71875 18.140625 8.90625 
Q 21.296875 6.109375 26.703125 6.109375 
Q 34.1875 6.109375 38.703125 11.40625 
Q 43.21875 16.703125 43.21875 25.484375 
L 43.21875 27.484375 
z
M 52.203125 31.203125 
L 52.203125 0 
L 43.21875 0 
L 43.21875 8.296875 
Q 40.140625 3.328125 35.546875 0.953125 
Q 30.953125 -1.421875 24.3125 -1.421875 
Q 15.921875 -1.421875 10.953125 3.296875 
Q 6 8.015625 6 15.921875 
Q 6 25.140625 12.171875 29.828125 
Q 18.359375 34.515625 30.609375 34.515625 
L 43.21875 34.515625 
L 43.21875 35.40625 
Q 43.21875 41.609375 39.140625 45 
Q 35.0625 48.390625 27.6875 48.390625 
Q 23 48.390625 18.546875 47.265625 
Q 14.109375 46.140625 10.015625 43.890625 
L 10.015625 52.203125 
Q 14.9375 54.109375 19.578125 55.046875 
Q 24.21875 56 28.609375 56 
Q 40.484375 56 46.34375 49.84375 
Q 52.203125 43.703125 52.203125 31.203125 
z
" id="DejaVuSans-97"/>
      <path d="M 52 44.1875 
Q 55.375 50.25 60.0625 53.125 
Q 64.75 56 71.09375 56 
Q 79.640625 56 84.28125 50.015625 
Q 88.921875 44.046875 88.921875 33.015625 
L 88.921875 0 
L 79.890625 0 
L 79.890625 32.71875 
Q 79.890625 40.578125 77.09375 44.375 
Q 74.3125 48.1875 68.609375 48.1875 
Q 61.625 48.1875 57.5625 43.546875 
Q 53.515625 38.921875 53.515625 30.90625 
L 53.515625 0 
L 44.484375 0 
L 44.484375 32.71875 
Q 44.484375 40.625 41.703125 44.40625 
Q 38.921875 48.1875 33.109375 48.1875 
Q 26.21875 48.1875 22.15625 43.53125 
Q 18.109375 38.875 18.109375 30.90625 
L 18.109375 0 
L 9.078125 0 
L 9.078125 54.6875 
L 18.109375 54.6875 
L 18.109375 46.1875 
Q 21.1875 51.21875 25.484375 53.609375 
Q 29.78125 56 35.6875 56 
Q 41.65625 56 45.828125 52.96875 
Q 50 49.953125 52 44.1875 
z
" id="DejaVuSans-109"/>
      <path d="M 18.109375 8.203125 
L 18.109375 -20.796875 
L 9.078125 -20.796875 
L 9.078125 54.6875 
L 18.109375 54.6875 
L 18.109375 46.390625 
Q 20.953125 51.265625 25.265625 53.625 
Q 29.59375 56 35.59375 56 
Q 45.5625 56 51.78125 48.09375 
Q 58.015625 40.1875 58.015625 27.296875 
Q 58.015625 14.40625 51.78125 6.484375 
Q 45.5625 -1.421875 35.59375 -1.421875 
Q 29.59375 -1.421875 25.265625 0.953125 
Q 20.953125 3.328125 18.109375 8.203125 
z
M 48.6875 27.296875 
Q 48.6875 37.203125 44.609375 42.84375 
Q 40.53125 48.484375 33.40625 48.484375 
Q 26.265625 48.484375 22.1875 42.84375 
Q 18.109375 37.203125 18.109375 27.296875 
Q 18.109375 17.390625 22.1875 11.75 
Q 26.265625 6.109375 33.40625 6.109375 
Q 40.53125 6.109375 44.609375 11.75 
Q 48.6875 17.390625 48.6875 27.296875 
z
" id="DejaVuSans-112"/>
      <path d="M 9.421875 75.984375 
L 18.40625 75.984375 
L 18.40625 0 
L 9.421875 0 
z
" id="DejaVuSans-108"/>
      <path d="M 56.203125 29.59375 
L 56.203125 25.203125 
L 14.890625 25.203125 
Q 15.484375 15.921875 20.484375 11.0625 
Q 25.484375 6.203125 34.421875 6.203125 
Q 39.59375 6.203125 44.453125 7.46875 
Q 49.3125 8.734375 54.109375 11.28125 
L 54.109375 2.78125 
Q 49.265625 0.734375 44.1875 -0.34375 
Q 39.109375 -1.421875 33.890625 -1.421875 
Q 20.796875 -1.421875 13.15625 6.1875 
Q 5.515625 13.8125 5.515625 26.8125 
Q 5.515625 40.234375 12.765625 48.109375 
Q 20.015625 56 32.328125 56 
Q 43.359375 56 49.78125 48.890625 
Q 56.203125 41.796875 56.203125 29.59375 
z
M 47.21875 32.234375 
Q 47.125 39.59375 43.09375 43.984375 
Q 39.0625 48.390625 32.421875 48.390625 
Q 24.90625 48.390625 20.390625 44.140625 
Q 15.875 39.890625 15.1875 32.171875 
z
" id="DejaVuSans-101"/>
      <path id="DejaVuSans-32"/>
      <path d="M 44.28125 53.078125 
L 44.28125 44.578125 
Q 40.484375 46.53125 36.375 47.5 
Q 32.28125 48.484375 27.875 48.484375 
Q 21.1875 48.484375 17.84375 46.4375 
Q 14.5 44.390625 14.5 40.28125 
Q 14.5 37.15625 16.890625 35.375 
Q 19.28125 33.59375 26.515625 31.984375 
L 29.59375 31.296875 
Q 39.15625 29.25 43.1875 25.515625 
Q 47.21875 21.78125 47.21875 15.09375 
Q 47.21875 7.46875 41.1875 3.015625 
Q 35.15625 -1.421875 24.609375 -1.421875 
Q 20.21875 -1.421875 15.453125 -0.5625 
Q 10.6875 0.296875 5.421875 2 
L 5.421875 11.28125 
Q 10.40625 8.6875 15.234375 7.390625 
Q 20.0625 6.109375 24.8125 6.109375 
Q 31.15625 6.109375 34.5625 8.28125 
Q 37.984375 10.453125 37.984375 14.40625 
Q 37.984375 18.0625 35.515625 20.015625 
Q 33.0625 21.96875 24.703125 23.78125 
L 21.578125 24.515625 
Q 13.234375 26.265625 9.515625 29.90625 
Q 5.8125 33.546875 5.8125 39.890625 
Q 5.8125 47.609375 11.28125 51.796875 
Q 16.75 56 26.8125 56 
Q 31.78125 56 36.171875 55.265625 
Q 40.578125 54.546875 44.28125 53.078125 
z
" id="DejaVuSans-115"/>
      <path d="M 9.421875 54.6875 
L 18.40625 54.6875 
L 18.40625 0 
L 9.421875 0 
z
M 9.421875 75.984375 
L 18.40625 75.984375 
L 18.40625 64.59375 
L 9.421875 64.59375 
z
" id="DejaVuSans-105"/>
      <path d="M 5.515625 54.6875 
L 48.1875 54.6875 
L 48.1875 46.484375 
L 14.40625 7.171875 
L 48.1875 7.171875 
L 48.1875 0 
L 4.296875 0 
L 4.296875 8.203125 
L 38.09375 47.515625 
L 5.515625 47.515625 
z
" id="DejaVuSans-122"/>
     </defs>
     <g transform="translate(206.127969 335.860562)scale(0.1 -0.1)">
      <use xlink:href="#DejaVuSans-83"/>
      <use x="63.476562" xlink:href="#DejaVuSans-97"/>
      <use x="124.755859" xlink:href="#DejaVuSans-109"/>
      <use x="222.167969" xlink:href="#DejaVuSans-112"/>
      <use x="285.644531" xlink:href="#DejaVuSans-108"/>
      <use x="313.427734" xlink:href="#DejaVuSans-101"/>
      <use x="374.951172" xlink:href="#DejaVuSans-32"/>
      <use x="406.738281" xlink:href="#DejaVuSans-115"/>
      <use x="458.837891" xlink:href="#DejaVuSans-105"/>
      <use x="486.621094" xlink:href="#DejaVuSans-122"/>
      <use x="539.111328" xlink:href="#DejaVuSans-101"/>
     </g>
    </g>
   </g>
   <g id="matplotlib.axis_2">
    <g id="ytick_1">
     <g id="line2d_6">
      <defs>
       <path d="M 0 0 
L -3.5 0 
" id="md3ec648769" style="stroke:#000000;stroke-width:0.8;"/>
      </defs>
      <g>
       <use style="stroke:#000000;stroke-width:0.8;" x="57.6" xlink:href="#md3ec648769" y="301.944471"/>
      </g>
     </g>
     <g id="text_7">
      <!-- 0.0 -->
      <defs>
       <path d="M 10.6875 12.40625 
L 21 12.40625 
L 21 0 
L 10.6875 0 
z
" id="DejaVuSans-46"/>
      </defs>
      <g transform="translate(34.696875 305.74369)scale(0.1 -0.1)">
       <use xlink:href="#DejaVuSans-48"/>
       <use x="63.623047" xlink:href="#DejaVuSans-46"/>
       <use x="95.410156" xlink:href="#DejaVuSans-48"/>
      </g>
     </g>
    </g>
    <g id="ytick_2">
     <g id="line2d_7">
      <g>
       <use style="stroke:#000000;stroke-width:0.8;" x="57.6" xlink:href="#md3ec648769" y="255.984068"/>
      </g>
     </g>
     <g id="text_8">
      <!-- 0.1 -->
      <g transform="translate(34.696875 259.783287)scale(0.1 -0.1)">
       <use xlink:href="#DejaVuSans-48"/>
       <use x="63.623047" xlink:href="#DejaVuSans-46"/>
       <use x="95.410156" xlink:href="#DejaVuSans-49"/>
      </g>
     </g>
    </g>
    <g id="ytick_3">
     <g id="line2d_8">
      <g>
       <use style="stroke:#000000;stroke-width:0.8;" x="57.6" xlink:href="#md3ec648769" y="210.023665"/>
      </g>
     </g>
     <g id="text_9">
      <!-- 0.2 -->
      <g transform="translate(34.696875 213.822884)scale(0.1 -0.1)">
       <use xlink:href="#DejaVuSans-48"/>
       <use x="63.623047" xlink:href="#DejaVuSans-46"/>
       <use x="95.410156" xlink:href="#DejaVuSans-50"/>
      </g>
     </g>
    </g>
    <g id="ytick_4">
     <g id="line2d_9">
      <g>
       <use style="stroke:#000000;stroke-width:0.8;" x="57.6" xlink:href="#md3ec648769" y="164.063263"/>
      </g>
     </g>
     <g id="text_10">
      <!-- 0.3 -->
      <g transform="translate(34.696875 167.862481)scale(0.1 -0.1)">
       <use xlink:href="#DejaVuSans-48"/>
       <use x="63.623047" xlink:href="#DejaVuSans-46"/>
       <use x="95.410156" xlink:href="#DejaVuSans-51"/>
      </g>
     </g>
    </g>
    <g id="ytick_5">
     <g id="line2d_10">
      <g>
       <use style="stroke:#000000;stroke-width:0.8;" x="57.6" xlink:href="#md3ec648769" y="118.10286"/>
      </g>
     </g>
     <g id="text_11">
      <!-- 0.4 -->
      <g transform="translate(34.696875 121.902078)scale(0.1 -0.1)">
       <use xlink:href="#DejaVuSans-48"/>
       <use x="63.623047" xlink:href="#DejaVuSans-46"/>
       <use x="95.410156" xlink:href="#DejaVuSans-52"/>
      </g>
     </g>
    </g>
    <g id="ytick_6">
     <g id="line2d_11">
      <g>
       <use style="stroke:#000000;stroke-width:0.8;" x="57.6" xlink:href="#md3ec648769" y="72.142457"/>
      </g>
     </g>
     <g id="text_12">
      <!-- 0.5 -->
      <defs>
       <path d="M 10.796875 72.90625 
L 49.515625 72.90625 
L 49.515625 64.59375 
L 19.828125 64.59375 
L 19.828125 46.734375 
Q 21.96875 47.46875 24.109375 47.828125 
Q 26.265625 48.1875 28.421875 48.1875 
Q 40.625 48.1875 47.75 41.5 
Q 54.890625 34.8125 54.890625 23.390625 
Q 54.890625 11.625 47.5625 5.09375 
Q 40.234375 -1.421875 26.90625 -1.421875 
Q 22.3125 -1.421875 17.546875 -0.640625 
Q 12.796875 0.140625 7.71875 1.703125 
L 7.71875 11.625 
Q 12.109375 9.234375 16.796875 8.0625 
Q 21.484375 6.890625 26.703125 6.890625 
Q 35.15625 6.890625 40.078125 11.328125 
Q 45.015625 15.765625 45.015625 23.390625 
Q 45.015625 31 40.078125 35.4375 
Q 35.15625 39.890625 26.703125 39.890625 
Q 22.75 39.890625 18.8125 39.015625 
Q 14.890625 38.140625 10.796875 36.28125 
z
" id="DejaVuSans-53"/>
      </defs>
      <g transform="translate(34.696875 75.941675)scale(0.1 -0.1)">
       <use xlink:href="#DejaVuSans-48"/>
       <use x="63.623047" xlink:href="#DejaVuSans-46"/>
       <use x="95.410156" xlink:href="#DejaVuSans-53"/>
      </g>
     </g>
    </g>
    <g id="text_13">
     <!-- P-value -->
     <defs>
      <path d="M 19.671875 64.796875 
L 19.671875 37.40625 
L 32.078125 37.40625 
Q 38.96875 37.40625 42.71875 40.96875 
Q 46.484375 44.53125 46.484375 51.125 
Q 46.484375 57.671875 42.71875 61.234375 
Q 38.96875 64.796875 32.078125 64.796875 
z
M 9.8125 72.90625 
L 32.078125 72.90625 
Q 44.34375 72.90625 50.609375 67.359375 
Q 56.890625 61.8125 56.890625 51.125 
Q 56.890625 40.328125 50.609375 34.8125 
Q 44.34375 29.296875 32.078125 29.296875 
L 19.671875 29.296875 
L 19.671875 0 
L 9.8125 0 
z
" id="DejaVuSans-80"/>
      <path d="M 4.890625 31.390625 
L 31.203125 31.390625 
L 31.203125 23.390625 
L 4.890625 23.390625 
z
" id="DejaVuSans-45"/>
      <path d="M 2.984375 54.6875 
L 12.5 54.6875 
L 29.59375 8.796875 
L 46.6875 54.6875 
L 56.203125 54.6875 
L 35.6875 0 
L 23.484375 0 
z
" id="DejaVuSans-118"/>
      <path d="M 8.5 21.578125 
L 8.5 54.6875 
L 17.484375 54.6875 
L 17.484375 21.921875 
Q 17.484375 14.15625 20.5 10.265625 
Q 23.53125 6.390625 29.59375 6.390625 
Q 36.859375 6.390625 41.078125 11.03125 
Q 45.3125 15.671875 45.3125 23.6875 
L 45.3125 54.6875 
L 54.296875 54.6875 
L 54.296875 0 
L 45.3125 0 
L 45.3125 8.40625 
Q 42.046875 3.421875 37.71875 1 
Q 33.40625 -1.421875 27.6875 -1.421875 
Q 18.265625 -1.421875 13.375 4.4375 
Q 8.5 10.296875 8.5 21.578125 
z
M 31.109375 56 
z
" id="DejaVuSans-117"/>
     </defs>
     <g transform="translate(28.617187 193.001437)rotate(-90)scale(0.1 -0.1)">
      <use xlink:href="#DejaVuSans-80"/>
      <use x="60.271484" xlink:href="#DejaVuSans-45"/>
      <use x="96.324219" xlink:href="#DejaVuSans-118"/>
      <use x="155.503906" xlink:href="#DejaVuSans-97"/>
      <use x="216.783203" xlink:href="#DejaVuSans-108"/>
      <use x="244.566406" xlink:href="#DejaVuSans-117"/>
      <use x="307.945312" xlink:href="#DejaVuSans-101"/>
     </g>
    </g>
   </g>
   <g id="line2d_12">
    <path clip-path="url(#p814d79854b)" d="M 57.6 278.96427 
L 414.72 278.96427 
" style="fill:none;stroke:#ff0000;stroke-linecap:square;stroke-width:1.5;"/>
   </g>
   <g id="patch_3">
    <path d="M 57.6 307.584 
L 57.6 41.472 
" style="fill:none;stroke:#000000;stroke-linecap:square;stroke-linejoin:miter;stroke-width:0.8;"/>
   </g>
   <g id="patch_4">
    <path d="M 414.72 307.584 
L 414.72 41.472 
" style="fill:none;stroke:#000000;stroke-linecap:square;stroke-linejoin:miter;stroke-width:0.8;"/>
   </g>
   <g id="patch_5">
    <path d="M 57.6 307.584 
L 414.72 307.584 
" style="fill:none;stroke:#000000;stroke-linecap:square;stroke-linejoin:miter;stroke-width:0.8;"/>
   </g>
   <g id="patch_6">
    <path d="M 57.6 41.472 
L 414.72 41.472 
" style="fill:none;stroke:#000000;stroke-linecap:square;stroke-linejoin:miter;stroke-width:0.8;"/>
   </g>
   <g id="text_14">
    <!-- 0.05 -->
    <g style="fill:#ff0000;" transform="translate(28.334375 281.723645)scale(0.1 -0.1)">
     <use xlink:href="#DejaVuSans-48"/>
     <use x="63.623047" xlink:href="#DejaVuSans-46"/>
     <use x="95.410156" xlink:href="#DejaVuSans-48"/>
     <use x="159.033203" xlink:href="#DejaVuSans-53"/>
    </g>
   </g>
  </g>
 </g>
 <defs>
  <clipPath id="p814d79854b">
   <rect height="266.112" width="357.12" x="57.6" y="41.472"/>
  </clipPath>
 </defs>
</svg>
